<?xml version="1.0" standalone="no"?>
<!DOCTYPE svg PUBLIC "-//W3C//DTD SVG 20010904//EN"
 "http://www.w3.org/TR/2001/REC-SVG-20010904/DTD/svg10.dtd">
<svg version="1.0" xmlns="http://www.w3.org/2000/svg"
 width="70.000000pt" height="70.000000pt" viewBox="0 0 70.000000 70.000000"
 preserveAspectRatio="xMidYMid meet">
<metadata>
Created by potrace 1.14, written by Peter Selinger 2001-2017
</metadata>
<g transform="translate(0.000000,70.000000) scale(0.100000,-0.100000)"
fill="#000000" stroke="none">
<path d="M286 634 c-39 -58 -43 -69 -30 -79 13 -9 12 -13 -8 -23 -13 -7 -34
-34 -48 -60 -13 -26 -33 -60 -43 -76 -17 -23 -17 -30 -6 -37 8 -5 20 -9 27 -9
21 0 13 -15 -18 -34 -17 -10 -43 -36 -57 -59 -14 -23 -39 -61 -54 -83 -27 -39
-27 -42 -11 -56 24 -21 181 -107 206 -114 17 -4 421 98 433 110 2 1 -22 45
-53 97 -37 62 -70 103 -96 122 -35 25 -38 30 -24 40 15 11 13 19 -25 77 -23
36 -49 70 -58 77 -12 9 -12 12 -3 13 14 0 -11 50 -64 129 l-22 33 -46 -68z"/>
</g>
</svg>
